<svg width="28" height="28" viewBox="0 0 28 28" fill="none" xmlns="http://www.w3.org/2000/svg">
<path fill-rule="evenodd" clip-rule="evenodd" d="M17.0945 5.21762C17.1076 5.19893 17.1334 5.19439 17.1521 5.20748L18.4302 6.10241C18.4489 6.1155 18.4534 6.14126 18.4403 6.15996L16.6614 8.70047C17.5263 8.97675 18.1154 9.27478 18.1154 9.27478C18.1154 9.27478 16.6753 11.752 14.2326 11.752C11.79 11.752 10.0542 9.44318 10.0542 9.44318C10.0542 9.44318 10.6697 9.05041 11.582 8.71354L9.63081 6.38822C9.61615 6.37073 9.61844 6.34467 9.63591 6.33L10.8311 5.32708C10.8486 5.31241 10.8747 5.31469 10.8894 5.33217L13.3599 8.27645C13.5714 8.25252 13.7869 8.23914 14.0044 8.23914C14.317 8.23914 14.6292 8.26291 14.934 8.30323L17.0945 5.21762ZM17.5778 11.8693C18.2296 11.4038 19.216 10.1887 19.216 10.1887C19.216 10.1887 21.7355 12.1852 21.7355 16.4187C21.7355 20.6521 17.3797 23.2 17.3797 23.2C17.3797 23.2 15.2986 21.0983 14.7877 18.4341C14.2768 15.7699 15.5434 12.8116 15.5434 12.8116C15.5434 12.8116 16.9259 12.3349 17.5778 11.8693ZM10.5576 11.8693C9.90574 11.4038 8.91938 10.1887 8.91938 10.1887C8.91938 10.1887 6.3999 12.1852 6.3999 16.4187C6.3999 20.6521 10.7557 23.2 10.7557 23.2C10.7557 23.2 12.8368 21.0983 13.3477 18.4341C13.8586 15.7699 12.592 12.8116 12.592 12.8116C12.592 12.8116 11.2095 12.3349 10.5576 11.8693Z" fill="#9BBA48"/>
</svg>
