<svg width="28" height="28" viewBox="0 0 28 28" fill="none" xmlns="http://www.w3.org/2000/svg">
<path fill-rule="evenodd" clip-rule="evenodd" d="M13.2762 21.1205C13.6182 21.1729 13.9684 21.2 14.325 21.2C18.1219 21.2 21.2 18.122 21.2 14.325C21.2 10.528 18.1219 7.45 14.325 7.45C14.0703 7.45 13.8187 7.46386 13.5712 7.49086C15.4547 8.91781 16.7 11.3897 16.7 14.2C16.7 17.1545 15.3236 19.735 13.2762 21.1205ZM14.2 23.2C19.1706 23.2 23.2 19.1706 23.2 14.2C23.2 9.22943 19.1706 5.2 14.2 5.2C9.22942 5.2 5.2 9.22943 5.2 14.2C5.2 19.1706 9.22942 23.2 14.2 23.2Z" fill="#595761"/>
</svg>
