<svg width="28" height="28" viewBox="0 0 28 28" fill="none" xmlns="http://www.w3.org/2000/svg">
<path fill-rule="evenodd" clip-rule="evenodd" d="M14.7434 14.1607C14.8654 14.0863 14.9689 13.9304 15.0524 13.7571C16.1508 14.2061 16.9228 15.267 16.9228 16.5041C16.9228 18.1477 15.5605 19.4801 13.88 19.4801C13.1902 19.4801 12.5539 19.2555 12.0436 18.8772C11.8762 18.7979 11.7384 18.7217 11.6257 18.6594C11.4509 18.5628 11.3362 18.4994 11.2644 18.5093C11.0546 18.5382 11.1155 18.7313 11.1709 18.9067C11.2085 19.0258 11.2435 19.1368 11.1893 19.1826C11.1325 19.2305 10.9487 19.0553 10.734 18.8505C10.4416 18.5718 10.0919 18.2383 9.92695 18.3385C9.79656 18.4177 9.92316 18.6325 10.0781 18.8955L10.0896 18.915C10.1551 19.0262 10.2309 19.1394 10.3002 19.2427C10.4409 19.4526 10.5542 19.6218 10.4975 19.6504C10.429 19.685 9.95135 19.3626 9.54885 18.915C9.39349 18.7423 9.24302 18.5551 9.10317 18.3811V18.381C8.79707 18.0001 8.54204 17.6829 8.39889 17.7204C8.22667 17.7657 8.35695 18.1209 8.54837 18.4627C8.63788 18.6226 8.74317 18.7853 8.83433 18.9263V18.9263C8.97612 19.1455 9.08373 19.3118 9.04471 19.3323C8.99204 19.3598 8.52865 18.9079 8.21391 18.3385C8.02697 18.0003 7.86999 17.6265 7.74291 17.3239C7.60509 16.9957 7.50243 16.7513 7.43484 16.7266C7.19997 16.6412 7.19997 17.12 7.29417 17.8112C7.30646 17.9014 7.32475 17.9959 7.34729 18.0922C8.26079 21.0479 11.067 23.2 14.3871 23.2C18.4483 23.2 21.7404 19.9801 21.7404 16.0082C21.7404 12.2277 18.7582 9.12861 14.9691 8.83846C14.9738 8.66037 15.0668 8.30722 15.0668 8.30722C15.0668 8.30722 15.7357 6.68877 15.7711 6.34293C15.7734 6.31997 15.7762 6.29503 15.7792 6.26847C15.8208 5.89479 15.8983 5.2 15.3006 5.2C14.9814 5.2 14.833 5.43747 14.6632 5.70906V5.70906C14.598 5.81333 14.5297 5.92262 14.4473 6.02543C13.8543 6.76599 12.8572 7.69078 12.2917 8.18347C11.0966 9.22483 9.92411 10.0807 9.24025 10.5798L9.24021 10.5799C8.92918 10.8069 8.71927 10.9601 8.6543 11.0234C8.16471 11.5007 6.40928 14.6671 6.40928 14.6671C6.40928 14.6671 5.8416 15.683 6.04338 15.889C6.24516 16.095 6.73175 16.0478 6.73175 16.0478C6.73175 16.0478 13.2687 14.5482 13.854 14.4299C14.0115 14.398 14.1228 14.3797 14.2082 14.3656C14.44 14.3273 14.4817 14.3204 14.7434 14.1607ZM10.1215 12.2335C9.77065 12.567 9.18871 13.3631 9.18871 13.3631C9.18871 13.3631 10.2703 13.4298 10.8659 12.8636C11.4616 12.2973 11.3251 11.3324 11.3251 11.3324C11.3251 11.3324 10.4724 11.9 10.1215 12.2335Z" fill="#2C6AC1"/>
</svg>
