<svg width="28" height="28" viewBox="0 0 28 28" fill="none" xmlns="http://www.w3.org/2000/svg">
<path fill-rule="evenodd" clip-rule="evenodd" d="M8.62604 7.33018C8.81968 6.56567 9.51228 6 10.337 6C10.9556 6 11.4998 6.31827 11.815 6.8H12.331C12.6516 6.47099 13.0995 6.26667 13.5952 6.26667C14.3218 6.26667 14.946 6.70588 15.2165 7.33333H15.6486C15.9193 7.16433 16.2392 7.06667 16.5818 7.06667C17.3085 7.06667 17.9326 7.50588 18.2032 8.13333H19.378C19.3881 8.13333 19.3975 8.13604 19.4056 8.14075C19.4592 8.13584 19.5136 8.13333 19.5685 8.13333C20.5432 8.13333 21.3333 8.92348 21.3333 9.89819V15.1902L21.3333 15.2L21.3333 15.2098V15.286C21.3333 15.3183 21.3324 15.3505 21.3307 15.3825C21.2245 19.0537 17.9234 22 13.8667 22C9.74293 22 6.39999 18.9555 6.39999 15.2C6.39999 13.3872 7.1789 11.7401 8.44854 10.5211C8.44538 12.2884 8.47523 14.1154 8.61283 14.0841C8.98128 14.0001 8.6934 8.52623 8.62604 7.33018Z" fill="#C44D61"/>
</svg>
