<svg width="28" height="28" viewBox="0 0 28 28" fill="none" xmlns="http://www.w3.org/2000/svg">
<path fill-rule="evenodd" clip-rule="evenodd" d="M17.3341 19.1005C17.5565 18.2873 17.1248 16.6155 17.1248 16.6155C17.1248 16.6155 16.8117 17.9775 16.3224 18.4808C15.9051 18.9102 15.3937 19.208 14.6603 19.2863C15.2599 18.995 15.6723 18.3878 15.6723 17.6859C15.6723 16.7006 14.8598 15.9018 13.8574 15.9018C12.8551 15.9018 12.0426 16.7006 12.0426 17.6859C12.0426 17.955 12.1032 18.2102 12.2118 18.439C11.5848 17.9395 11.4863 17.1388 11.4863 17.1388C11.4863 17.1388 10.7862 20.0452 12.7151 21.4123C14.644 22.7795 18.4225 21.6044 18.4225 21.6044C18.4225 21.6044 13.0152 25.4091 9.00828 21.2681C5.55666 17.701 8.1074 13.0047 8.1074 13.0047C8.1074 13.0047 7.99724 13.4404 7.99724 13.9461C7.99724 14.4518 8.27144 14.8366 8.27144 14.8366C8.27144 14.8366 9.08935 13.1126 9.72589 12.4115C10.3283 11.7479 11.0835 11.2098 11.7358 10.7449C12.2379 10.3871 12.679 10.0728 12.9425 9.77811C14.3937 8.15549 13.5039 5.19995 13.5039 5.19995C13.5039 5.19995 15.1397 6.64206 15.5964 8.50456C15.7705 9.21452 15.6585 10.0223 15.5583 10.7447C15.3958 11.9173 15.2644 12.8649 16.4388 12.8034C18.3366 12.704 16.6875 9.77811 16.6875 9.77811C16.6875 9.77811 20.9924 12.0408 20.6708 15.998C20.3492 19.9553 15.9653 20.8549 15.9653 20.8549C15.9653 20.8549 17.1116 19.9137 17.3341 19.1005Z" fill="#F66D6D"/>
</svg>
