<svg width="28" height="28" viewBox="0 0 28 28" fill="none" xmlns="http://www.w3.org/2000/svg">
<path fill-rule="evenodd" clip-rule="evenodd" d="M11.5848 21.0667C13.9286 21.0667 15.9352 19.764 16.7636 17.9174C16.7738 17.8949 13.4377 18.7844 13.5441 18.4699C13.5916 18.3295 15.6366 17.5825 17.1265 16.7111C17.9829 16.2103 18.3772 15.15 18.3772 15.15C18.3772 15.15 16.9345 15.8505 16.2051 16.0282C14.7354 16.3863 13.4416 16.3478 13.4416 16.3104C13.4416 16.2298 15.5899 15.8216 18.5758 14.002C19.9802 13.1462 20.3617 11.672 20.3617 11.672C20.3617 11.672 18.8176 12.5917 17.8842 12.8954C15.6706 13.6155 13.6505 13.8325 13.6505 13.7351C13.6505 13.5264 15.4282 13.0376 17.313 12.1243C18.293 11.6495 19.1417 11.0291 20.1253 10.3392C21.7346 9.21039 22 7.20001 22 7.20001C22 7.20001 20.4127 8.22377 19.6382 8.56375C16.4419 9.96661 13.6197 10.7025 11.5848 10.8618C8.51301 11.1023 6 13.2455 6 16.0282C6 18.8109 8.50038 21.0667 11.5848 21.0667Z" fill="#A6BBE8"/>
</svg>
