<svg width="28" height="28" viewBox="0 0 28 28" fill="none" xmlns="http://www.w3.org/2000/svg">
<path fill-rule="evenodd" clip-rule="evenodd" d="M8.77573 19.9574C8.71872 19.9038 8.66233 19.8491 8.6066 19.7934C5.66446 16.8512 5.66446 12.0811 8.6066 9.13895C11.5487 6.1968 20.9235 5.99997 20.9235 5.99997C20.9235 5.99997 22.2032 16.8512 19.261 19.7934C16.648 22.4064 12.5932 22.6987 9.65755 20.6703L12.023 17.7676L15.8043 16.9512L12.7176 16.6426L14.6792 14.6453L16.9121 14.1562L15.1465 13.6333L16.9121 10.4481L14.4007 13.2651L13.4308 11.8965L13.7722 14.1562L12.023 16.1282L11.2121 13.6332V16.9512L8.77573 19.9574Z" fill="#73B861"/>
</svg>
