<svg width="28" height="28" viewBox="0 0 28 28" fill="none" xmlns="http://www.w3.org/2000/svg">
<path fill-rule="evenodd" clip-rule="evenodd" d="M18.6711 6.02075L18.7289 11.0944L14.3036 13.2187L14.2491 8.42823L18.6711 6.02075Z" fill="#8BCEC1"/>
<path fill-rule="evenodd" clip-rule="evenodd" d="M23.1073 14.0156L18.7266 16.5213L14.3433 14.0116L18.7243 11.7104L23.1073 14.0156Z" fill="#8BCEC1"/>
<path fill-rule="evenodd" clip-rule="evenodd" d="M13.564 14.0156L9.18333 16.5213L4.8 14.0116L9.18105 11.7104L13.564 14.0156Z" fill="#8BCEC1"/>
<path fill-rule="evenodd" clip-rule="evenodd" d="M9.13408 5.99997L13.6809 8.25187L13.5647 13.1592L9.2716 11.033L9.13408 5.99997Z" fill="#8BCEC1"/>
<path fill-rule="evenodd" clip-rule="evenodd" d="M18.795 21.9543L14.2481 19.7024L14.3644 14.795L18.6575 16.9212L18.795 21.9543Z" fill="#8BCEC1"/>
<path fill-rule="evenodd" clip-rule="evenodd" d="M9.29109 22L9.23329 16.9263L13.6586 14.802L13.7132 19.5924L9.29109 22Z" fill="#8BCEC1"/>
</svg>
