<svg width="28" height="28" viewBox="0 0 28 28" fill="none" xmlns="http://www.w3.org/2000/svg">
<path fill-rule="evenodd" clip-rule="evenodd" d="M20.0866 19.2884C20.0866 19.2884 18.0689 20.9067 14.0537 20.237C11.0075 19.729 9.38273 16.3709 9.38273 14.5659C9.38273 10.2864 12.5501 9.31248 14.6915 9.31248C16.8329 9.31248 18.2298 11.4002 18.2298 13.0166C18.2298 14.6331 17.0866 16.0469 15.3074 16.0469C13.5283 16.0469 13.0013 14.7979 13.0013 13.6495C13.0013 12.5012 13.9304 12.0966 14.7777 12.0966C15.625 12.0966 15.9152 12.82 15.9152 13.4417C15.9152 14.0635 15.4328 14.2861 15.0304 14.2861C14.628 14.2861 14.5883 14.0832 14.4343 13.8698C14.2803 13.6565 14.6307 12.8491 14.0537 12.8491C13.4768 12.8491 13.3693 13.7773 13.3693 13.7773C13.3693 13.7773 13.5796 15.5692 15.3074 15.5383C17.0352 15.5073 17.8549 14.1715 17.6167 12.8491C17.3785 11.5265 16.095 10.1212 13.8425 10.4052C11.5899 10.6892 10.6702 12.9652 11.0756 15.3974C11.481 17.8297 14.3948 19.239 16.6859 18.732C18.9769 18.2249 21.2588 16.5663 21.2588 12.3611C21.2588 8.15582 17.6167 5.62808 13.2739 6.04467C8.93108 6.46125 6.23526 10.258 6.40782 14.8199C6.58038 19.3818 10.9091 21.8664 14.5694 21.9944C18.2298 22.1225 20.4738 20.0036 20.4738 20.0036C20.4738 20.0036 20.9784 19.5536 20.7806 19.2022C20.5827 18.8508 20.0866 19.2884 20.0866 19.2884Z" fill="#EB8B85"/>
</svg>
