<svg width="28" height="28" viewBox="0 0 28 28" fill="none" xmlns="http://www.w3.org/2000/svg">
<path fill-rule="evenodd" clip-rule="evenodd" d="M4.80186 14.0113C4.79939 14.0071 4.79938 14.0019 4.80186 13.9976L9.47889 6.0067C9.48132 6.00255 9.48579 6 9.49058 6H18.7607C18.7655 6 18.77 6.00257 18.7724 6.00675L23.3982 13.9977C23.4006 14.0019 23.4006 14.0071 23.3982 14.0113L18.7724 21.9932C18.77 21.9974 18.7655 22 18.7607 22H9.49058C9.48579 22 9.48132 21.9975 9.47889 21.9933L4.80186 14.0113ZM18.4091 14C18.4091 16.3791 16.4805 18.3077 14.1015 18.3077C11.7224 18.3077 9.79378 16.3791 9.79378 14C9.79378 11.6209 11.7224 9.69232 14.1015 9.69232C16.4805 9.69232 18.4091 11.6209 18.4091 14Z" fill="#6594A1"/>
</svg>
